# xmcd
#
# Track frame offsets:
#	150
#	10825
#	24025
#	37487
#	56172
#	67895
#	80875
#	92012
#	101862
#	113025
#
# Disc length: 1653 seconds
#
# Revision: 0
# Processed by: cddbd v1.5.2PL0 Copyright (c) Steve Scherf et al.
# Submitted via: EZCDAudioConverter 8.0.2.1
#
DISCID=8006730a
DTITLE=Various Artist - The Ladies Of Country Music Disc 1
DYEAR=1900
DGENRE=Country
TTITLE0=Bille Jo Spears - Im So Lonesome I Could Cry
TTITLE1=Bille Jo Spears - It Coulda Been Me
TTITLE2=Jo Ann Steele - I Cry A Lot In School
TTITLE3=Jo Ann Steele - Beginning Of Goodbye
TTITLE4=Dottie West - Heartbreak USA
TTITLE5=Dottie West - I Fall To Pieces
TTITLE6=Jeannie C Riley - Box Of Memories
TTITLE7=Jeannie C Riley - He Made A Woman Out Of Me
TTITLE8=Patsy Cline - Hidin Out
TTITLE9=Patsy Cline - Stop The World
EXTD=
EXTT0=
EXTT1=
EXTT2=
EXTT3=
EXTT4=
EXTT5=
EXTT6=
EXTT7=
EXTT8=
EXTT9=
PLAYORDER=
